<svg width="25" height="24" viewBox="0 0 25 24" fill="none" xmlns="http://www.w3.org/2000/svg">
<mask id="mask0_1199_8572" style="mask-type:alpha" maskUnits="userSpaceOnUse" x="0" y="0" width="25" height="24">
<rect x="0.213135" width="24" height="24" fill="#D9D9D9"/>
</mask>
<g mask="url(#mask0_1199_8572)">
<path d="M12.2131 12C11.1131 12 10.1715 11.6083 9.38813 10.825C8.6048 10.0417 8.21313 9.1 8.21313 8C8.21313 6.9 8.6048 5.95833 9.38813 5.175C10.1715 4.39167 11.1131 4 12.2131 4C13.3131 4 14.2548 4.39167 15.0381 5.175C15.8215 5.95833 16.2131 6.9 16.2131 8C16.2131 9.1 15.8215 10.0417 15.0381 10.825C14.2548 11.6083 13.3131 12 12.2131 12ZM4.21313 20V17.2C4.21313 16.6333 4.35897 16.1125 4.65063 15.6375C4.9423 15.1625 5.3298 14.8 5.81313 14.55C6.84647 14.0333 7.89647 13.6458 8.96313 13.3875C10.0298 13.1292 11.1131 13 12.2131 13C13.3131 13 14.3965 13.1292 15.4631 13.3875C16.5298 13.6458 17.5798 14.0333 18.6131 14.55C19.0965 14.8 19.484 15.1625 19.7756 15.6375C20.0673 16.1125 20.2131 16.6333 20.2131 17.2V20H4.21313ZM6.21313 18H18.2131V17.2C18.2131 17.0167 18.1673 16.85 18.0756 16.7C17.984 16.55 17.8631 16.4333 17.7131 16.35C16.8131 15.9 15.9048 15.5625 14.9881 15.3375C14.0715 15.1125 13.1465 15 12.2131 15C11.2798 15 10.3548 15.1125 9.43813 15.3375C8.52147 15.5625 7.61313 15.9 6.71313 16.35C6.56313 16.4333 6.4423 16.55 6.35063 16.7C6.25897 16.85 6.21313 17.0167 6.21313 17.2V18ZM12.2131 10C12.7631 10 13.234 9.80417 13.6256 9.4125C14.0173 9.02083 14.2131 8.55 14.2131 8C14.2131 7.45 14.0173 6.97917 13.6256 6.5875C13.234 6.19583 12.7631 6 12.2131 6C11.6631 6 11.1923 6.19583 10.8006 6.5875C10.409 6.97917 10.2131 7.45 10.2131 8C10.2131 8.55 10.409 9.02083 10.8006 9.4125C11.1923 9.80417 11.6631 10 12.2131 10Z" fill="white"/>
</g>
</svg>
