<svg width="33" height="32" viewBox="0 0 33 32" fill="none" xmlns="http://www.w3.org/2000/svg">
<path d="M24.7427 17.0716V15.9209L26.1868 14.6573C26.453 14.4227 26.6277 14.1015 26.68 13.7505C26.7323 13.3996 26.6588 13.0414 26.4726 12.7394L24.6976 9.73084C24.5657 9.50239 24.3761 9.31264 24.1477 9.18063C23.9193 9.04861 23.6602 8.97898 23.3964 8.97871C23.2329 8.97746 23.0704 9.00286 22.9151 9.05392L21.0874 9.67067C20.7718 9.46098 20.4427 9.27253 20.1021 9.10657L19.7185 7.2112C19.6497 6.86493 19.4613 6.55387 19.1863 6.33249C18.9113 6.11111 18.5672 5.99351 18.2142 6.00028H14.6943C14.3413 5.99351 13.9972 6.11111 13.7222 6.33249C13.4472 6.55387 13.2588 6.86493 13.19 7.2112L12.8064 9.10657C12.4634 9.27249 12.1318 9.46093 11.8136 9.67067L10.0236 9.02384C9.86659 8.98294 9.70403 8.9677 9.54219 8.97871C9.2784 8.97898 9.01932 9.04861 8.79094 9.18063C8.56256 9.31264 8.37291 9.50239 8.24101 9.73084L6.46599 12.7394C6.29043 13.0409 6.22519 13.3942 6.28145 13.7386C6.33771 14.083 6.51196 14.3971 6.77436 14.6272L8.19588 15.9284V17.0791L6.77436 18.3427C6.50455 18.5744 6.32553 18.8941 6.26908 19.2452C6.21263 19.5963 6.28239 19.9561 6.46599 20.2606L8.24101 23.2692C8.37291 23.4976 8.56256 23.6874 8.79094 23.8194C9.01932 23.9514 9.2784 24.021 9.54219 24.0213C9.70567 24.0225 9.86826 23.9971 10.0236 23.9461L11.8512 23.3293C12.1668 23.539 12.4959 23.7275 12.8365 23.8934L13.2201 25.7888C13.2889 26.1351 13.4773 26.4461 13.7523 26.6675C14.0273 26.8889 14.3714 27.0065 14.7244 26.9997H18.2744C18.6274 27.0065 18.9715 26.8889 19.2465 26.6675C19.5215 26.4461 19.7099 26.1351 19.7787 25.7888L20.1623 23.8934C20.5053 23.7275 20.8369 23.5391 21.1551 23.3293L22.9752 23.9461C23.1305 23.9971 23.2931 24.0225 23.4566 24.0213C23.7204 24.021 23.9795 23.9514 24.2078 23.8194C24.4362 23.6874 24.6259 23.4976 24.7578 23.2692L26.4726 20.2606C26.6482 19.9591 26.7134 19.6058 26.6572 19.2614C26.6009 18.917 26.4266 18.6029 26.1642 18.3728L24.7427 17.0716ZM23.3964 22.517L20.8166 21.6446C20.2127 22.1561 19.5225 22.556 18.7783 22.8254L18.2443 25.5256H14.6943L14.1603 22.8555C13.422 22.5784 12.7355 22.1792 12.1295 21.6746L9.54219 22.517L7.76717 19.5085L9.81296 17.7034C9.67389 16.9248 9.67389 16.1278 9.81296 15.3492L7.76717 13.4915L9.54219 10.483L12.122 11.3554C12.7259 10.8439 13.4161 10.444 14.1603 10.1746L14.6943 7.47445H18.2443L18.7783 10.1445C19.5166 10.4216 20.2031 10.8208 20.8091 11.3254L23.3964 10.483L25.1714 13.4915L23.1256 15.2966C23.2647 16.0752 23.2647 16.8722 23.1256 17.6508L25.1714 19.5085L23.3964 22.517Z" fill="white"/>
<path d="M16.4693 21.0128C15.5768 21.0128 14.7043 20.7481 13.9622 20.2522C13.22 19.7564 12.6416 19.0516 12.3001 18.227C11.9585 17.4024 11.8691 16.495 12.0433 15.6196C12.2174 14.7442 12.6472 13.9401 13.2783 13.309C13.9094 12.6779 14.7135 12.2481 15.5889 12.0739C16.4643 11.8998 17.3717 11.9892 18.1963 12.3307C19.0209 12.6723 19.7257 13.2507 20.2216 13.9928C20.7174 14.7349 20.9821 15.6074 20.9821 16.5C20.9881 17.0943 20.8755 17.6838 20.6509 18.2341C20.4262 18.7843 20.094 19.2842 19.6738 19.7045C19.2535 20.1247 18.7536 20.4569 18.2034 20.6815C17.6532 20.9062 17.0636 21.0188 16.4693 21.0128ZM16.4693 13.4915C16.0717 13.4822 15.6763 13.5537 15.3071 13.7016C14.9379 13.8495 14.6026 14.0708 14.3214 14.352C14.0401 14.6333 13.8189 14.9686 13.6709 15.3378C13.523 15.707 13.4515 16.1024 13.4608 16.5C13.4515 16.8976 13.523 17.293 13.6709 17.6622C13.8189 18.0314 14.0401 18.3667 14.3214 18.648C14.6026 18.9292 14.9379 19.1505 15.3071 19.2984C15.6763 19.4463 16.0717 19.5178 16.4693 19.5085C16.8669 19.5178 17.2623 19.4463 17.6315 19.2984C18.0007 19.1505 18.3361 18.9292 18.6173 18.648C18.8985 18.3667 19.1198 18.0314 19.2677 17.6622C19.4156 17.293 19.4871 16.8976 19.4778 16.5C19.4871 16.1024 19.4156 15.707 19.2677 15.3378C19.1198 14.9686 18.8985 14.6333 18.6173 14.352C18.3361 14.0708 18.0007 13.8495 17.6315 13.7016C17.2623 13.5537 16.8669 13.4822 16.4693 13.4915Z" fill="white"/>
</svg>
