<svg width="122" height="26" viewBox="0 0 122 26" fill="none" xmlns="http://www.w3.org/2000/svg">
<path d="M79.7437 21.977V17.2524H77.9998V24.4901H79.6673L83.3115 19.7862V24.4901H85.0554V17.2524H83.3988L79.7437 21.977Z" fill="white"/>
<path d="M88.9051 19.1968C89.1234 18.99 89.3816 18.8297 89.6798 18.7159C89.978 18.6022 90.3054 18.5453 90.6618 18.5453C91.04 18.5453 91.391 18.6177 91.7147 18.7625C92.0384 18.9072 92.3275 19.121 92.5821 19.4037L93.7277 18.4108C93.364 17.9903 92.9131 17.6714 92.3748 17.4542C91.8365 17.237 91.2364 17.1284 90.5745 17.1284C89.9853 17.1284 89.4379 17.2198 88.9324 17.4025C88.4269 17.5852 87.9868 17.8455 87.6122 18.1833C87.2376 18.5211 86.9466 18.9176 86.7393 19.3726C86.532 19.8277 86.4284 20.3275 86.4284 20.8722C86.4284 21.4169 86.532 21.9168 86.7393 22.3718C86.9466 22.8269 87.2358 23.2233 87.6067 23.5612C87.9777 23.899 88.416 24.1593 88.9215 24.342C89.427 24.5247 89.9744 24.616 90.5636 24.616C91.2328 24.616 91.8365 24.5057 92.3748 24.2851C92.9131 24.0645 93.364 23.7439 93.7277 23.3233L92.5821 22.3305C92.3275 22.6131 92.0384 22.8286 91.7147 22.9768C91.391 23.1251 91.04 23.1992 90.6618 23.1992C90.3054 23.1992 89.978 23.1423 89.6798 23.0285C89.3816 22.9148 89.1234 22.7545 88.9051 22.5476C88.6869 22.3408 88.5178 22.096 88.3978 21.8134C88.2778 21.5307 88.2178 21.217 88.2178 20.8722C88.2178 20.5275 88.2778 20.2138 88.3978 19.9311C88.5178 19.6484 88.6869 19.4037 88.9051 19.1968Z" fill="white"/>
<path d="M101.34 18.1833C100.962 17.8455 100.52 17.5852 100.014 17.4025C99.5086 17.2198 98.954 17.1284 98.3503 17.1284C97.7465 17.1284 97.1919 17.2215 96.6864 17.4077C96.1808 17.5938 95.7389 17.8558 95.3607 18.1936C94.9825 18.5315 94.6897 18.9262 94.4824 19.3778C94.2751 19.8294 94.1714 20.3275 94.1714 20.8722C94.1714 21.4169 94.2751 21.9064 94.4824 22.3615C94.6897 22.8165 94.9825 23.213 95.3607 23.5508C95.7389 23.8886 96.1826 24.1506 96.6918 24.3368C97.201 24.523 97.7575 24.616 98.3612 24.616C98.9649 24.616 99.5086 24.5247 100.014 24.342C100.52 24.1593 100.962 23.899 101.34 23.5612C101.718 23.2233 102.011 22.8251 102.218 22.3666C102.425 21.9082 102.529 21.41 102.529 20.8722C102.529 20.3344 102.425 19.8277 102.218 19.3726C102.011 18.9176 101.718 18.5211 101.34 18.1833ZM100.56 21.8065C100.44 22.0857 100.271 22.3305 100.052 22.5407C99.8341 22.751 99.5814 22.9131 99.2941 23.0268C99.0067 23.1406 98.6921 23.1975 98.3503 23.1975C98.0084 23.1975 97.692 23.1406 97.401 23.0268C97.1101 22.9131 96.8573 22.751 96.6427 22.5407C96.4281 22.3305 96.2608 22.0857 96.1408 21.8065C96.0208 21.5272 95.9608 21.2152 95.9608 20.8705C95.9608 20.5258 96.0208 20.2138 96.1408 19.9346C96.2608 19.6553 96.4281 19.4106 96.6427 19.2003C96.8573 18.99 97.1101 18.828 97.401 18.7142C97.692 18.6004 98.0084 18.5436 98.3503 18.5436C98.6921 18.5436 99.0067 18.6004 99.2941 18.7142C99.5814 18.828 99.8341 18.99 100.052 19.2003C100.271 19.4106 100.44 19.6553 100.56 19.9346C100.68 20.2138 100.74 20.5258 100.74 20.8705C100.74 21.2152 100.68 21.5272 100.56 21.8065Z" fill="white"/>
<path d="M110.48 23.125V17.2524H104.622L104.524 19.5173C104.502 20.0413 104.468 20.5222 104.42 20.9601C104.373 21.3979 104.299 21.7805 104.197 22.108C104.095 22.4355 103.958 22.6889 103.788 22.8682C103.617 23.0474 103.4 23.1336 103.138 23.1267H102.898V26.0001H104.524L104.535 24.4901H109.912V26.0001H111.549V23.1267H110.48V23.125ZM105.506 22.8664C105.63 22.6389 105.731 22.3631 105.812 22.0391C105.892 21.715 105.952 21.3513 105.992 20.948C106.032 20.5447 106.062 20.1189 106.084 19.6707L106.128 18.6159H108.734V23.1233H105.321C105.388 23.0491 105.451 22.9647 105.504 22.8647L105.506 22.8664Z" fill="white"/>
<path fill-rule="evenodd" clip-rule="evenodd" d="M98.0889 6.21784L101.798 2.7018H104.462V11.1149H106.965V0.329352H100.752L95.586 5.22639V11.1149H98.0889V6.21784ZM84.433 2.7018H90.783V8.74243H84.433V2.7018ZM81.9301 11.1149H93.3089V0.307617H81.9301V11.1149ZM68.2742 11.1149H70.7772V2.7018H77.15V11.1149H79.653V0.329352H68.2742V11.1149ZM57.1212 2.7018H63.4712V8.74243H57.1212V2.7018ZM54.6183 11.1149H65.9971V0.307617H54.6183V11.1149ZM49.8417 4.51416H43.4689V2.68006H49.8417V4.51416ZM40.9659 11.1149H43.4689V6.90834H52.3447V0.307617H40.9659V11.1149ZM29.813 2.7018H31.6562V8.74243H29.813V2.7018ZM36.1858 8.74243H34.1609V2.7018H36.1858V8.74243ZM38.6888 11.1149V0.307617L27.31 0.329352V11.1149H38.6888ZM13.6541 11.1784L22.5546 5.07425V11.1149H25.0346V0.392885L16.1359 6.58399V0.392885H13.6559V11.1784H13.6541ZM4.4379 15.0857H11.3787V12.7065H4.4379V15.0857ZM11.3787 0.351087H8.89874V8.74243H2.50293V0.351087H0V11.1149H11.3787V0.351087Z" fill="white"/>
<path fill-rule="evenodd" clip-rule="evenodd" d="M11.1565 12.7082V15.084H110.337C110.773 15.186 117.421 21.6948 118.075 22.2114C118.62 22.728 120.146 24.1742 120.582 24.5872L122 23.243L111.426 13.2215V0H109.355V12.7082H11.1565Z" fill="#DA0000"/>
</svg>
