<svg width="54" height="54" viewBox="0 0 54 54" fill="none" xmlns="http://www.w3.org/2000/svg">
<g filter="url(#filter0_d_193_580)">
<rect x="7" y="4" width="40" height="40" rx="20" fill="white"/>
</g>
<path fill-rule="evenodd" clip-rule="evenodd" d="M27.3545 25.0666H26.6533C26.1271 25.0859 25.6024 25.0006 25.1095 24.8156C24.6165 24.6307 24.1652 24.3497 23.7816 23.9891C23.3979 23.6285 23.0897 23.1954 22.8746 22.7149C22.6596 22.2343 22.542 21.7158 22.5287 21.1895V18.9004C22.5393 18.3723 22.6549 17.8516 22.8688 17.3686C23.0826 16.8857 23.3905 16.4501 23.7744 16.0873C24.1583 15.7246 24.6105 15.4418 25.1048 15.2556C25.5991 15.0694 26.1254 14.9834 26.6533 15.0026H27.3545C28.4066 14.9861 29.4225 15.3868 30.18 16.1172C30.9375 16.8477 31.3749 17.8483 31.3965 18.9004V21.1895C31.3695 22.2379 30.9297 23.2333 30.1729 23.9593C29.416 24.6853 28.4031 25.0833 27.3545 25.0666ZM24.7794 18.143C24.6681 18.3735 24.604 18.624 24.591 18.8797V21.1895C24.6013 21.447 24.6634 21.6997 24.7736 21.9327C24.8838 22.1656 25.0398 22.3739 25.2323 22.5453C25.4248 22.7166 25.6498 22.8473 25.894 22.9298C26.1381 23.0122 26.3963 23.0445 26.6533 23.0249H27.3545C27.6114 23.0445 27.8696 23.0122 28.1138 22.9298C28.3579 22.8473 28.583 22.7166 28.7754 22.5453C28.9679 22.3739 29.1239 22.1656 29.2341 21.9327C29.3443 21.6997 29.4064 21.447 29.4167 21.1895V18.9004C29.4064 18.6429 29.3443 18.3901 29.2341 18.1572C29.1239 17.9243 28.9679 17.7159 28.7754 17.5446C28.583 17.3733 28.3579 17.2425 28.1138 17.1601C27.8696 17.0777 27.6114 17.0453 27.3545 17.0649H26.6533C26.398 17.0453 26.1414 17.077 25.8986 17.1582C25.6557 17.2393 25.4316 17.3683 25.2394 17.5374C25.0472 17.7066 24.8908 17.9125 24.7794 18.143ZM33.5827 26.781C34.6968 27.5587 35.5117 28.6938 35.8924 29.9981C35.9994 30.328 36.0271 30.6784 35.9733 31.021C35.9195 31.3635 35.7858 31.6886 35.5829 31.9698C35.38 32.251 35.1137 32.4804 34.8056 32.6395C34.4975 32.7986 34.1562 32.8828 33.8095 32.8853H20.1778C19.8312 32.884 19.4899 32.8003 19.1821 32.6412C18.8742 32.482 18.6086 32.2519 18.4072 31.9699C18.2057 31.6879 18.0742 31.362 18.0235 31.0192C17.9728 30.6764 18.0043 30.3264 18.1155 29.9981C18.4962 28.6938 19.3111 27.5587 20.4253 26.781L23.7456 25.0693C24.6536 25.845 25.8097 26.2694 27.004 26.2654C28.1918 26.2681 29.341 25.8436 30.2417 25.0693L33.5827 26.781ZM20.1778 30.823H33.8095C33.8303 30.8277 33.8521 30.8258 33.8718 30.8176C33.8915 30.8093 33.9082 30.7952 33.9195 30.7771C33.9308 30.759 33.9362 30.7378 33.935 30.7165C33.9338 30.6952 33.9259 30.6747 33.9126 30.6581C33.7015 29.8434 33.231 29.1195 32.5721 28.5958L30.3655 27.4409C29.3528 28.0517 28.1862 28.3595 27.004 28.3277C25.8255 28.3503 24.6632 28.0508 23.6424 27.4615L21.4358 28.6164C20.7744 29.1456 20.2919 29.8657 20.0541 30.6787L20.1778 30.823Z" fill="#7392AE"/>
<defs>
<filter id="filter0_d_193_580" x="0" y="0" width="54" height="54" filterUnits="userSpaceOnUse" color-interpolation-filters="sRGB">
<feFlood flood-opacity="0" result="BackgroundImageFix"/>
<feColorMatrix in="SourceAlpha" type="matrix" values="0 0 0 0 0 0 0 0 0 0 0 0 0 0 0 0 0 0 127 0" result="hardAlpha"/>
<feOffset dy="3"/>
<feGaussianBlur stdDeviation="3.5"/>
<feColorMatrix type="matrix" values="0 0 0 0 0.364706 0 0 0 0 0.4 0 0 0 0 0.501961 0 0 0 0.1 0"/>
<feBlend mode="multiply" in2="BackgroundImageFix" result="effect1_dropShadow_193_580"/>
<feBlend mode="normal" in="SourceGraphic" in2="effect1_dropShadow_193_580" result="shape"/>
</filter>
</defs>
</svg>
